<?xml version="1.0" standalone="no"?>
<!DOCTYPE svg PUBLIC "-//W3C//DTD SVG 20010904//EN"
 "http://www.w3.org/TR/2001/REC-SVG-20010904/DTD/svg10.dtd">
<svg version="1.0" xmlns="http://www.w3.org/2000/svg"
 width="400.000000pt" height="400.000000pt" viewBox="0 0 400.000000 400.000000"
 preserveAspectRatio="xMidYMid meet">
<metadata>
Created by potrace 1.16, written by Peter Selinger 2001-2019
</metadata>
<g transform="translate(0.000000,400.000000) scale(0.100000,-0.100000)"
fill="#ffffff" stroke="none">
<path d="M1745 3589 c-49 -10 -118 -28 -152 -39 -34 -11 -69 -20 -78 -20 -38
0 -350 -158 -417 -211 -20 -16 -43 -29 -50 -29 -7 0 -29 -17 -49 -37 -19 -21
-67 -62 -106 -91 -91 -69 -155 -131 -148 -142 3 -5 -14 -19 -38 -30 -47 -22
-152 -112 -142 -122 3 -3 38 3 77 13 69 18 98 35 126 72 7 9 18 17 25 17 19 0
167 74 167 84 0 5 -24 6 -52 3 -29 -3 -46 -3 -38 1 8 3 27 18 41 33 14 15 39
31 55 34 16 4 67 17 113 31 46 13 88 21 94 17 6 -3 7 -1 3 5 -5 8 4 12 28 12
20 0 36 -5 36 -11 0 -6 16 -10 38 -9 54 3 64 1 58 -9 -3 -5 8 -8 24 -7 17 0
30 4 30 8 0 5 5 8 10 8 29 0 2 -24 -60 -53 l-71 -32 158 0 c149 0 284 16 308
37 5 4 20 8 32 8 40 0 177 31 192 43 29 24 110 36 246 37 151 0 186 -6 285
-52 85 -39 92 -45 141 -142 46 -90 60 -169 38 -221 -10 -25 -13 -27 -17 -11
-3 15 -6 16 -13 5 -7 -12 -9 -12 -9 1 0 13 -1 13 -10 0 -8 -12 -10 -12 -10 5
-1 17 -3 15 -16 -8 -9 -16 -18 -27 -21 -24 -2 3 0 15 7 26 13 26 3 28 -17 4
-14 -17 -14 -17 -9 0 3 11 2 16 -4 12 -6 -4 -8 -18 -6 -32 3 -14 2 -23 -1 -19
-10 10 -32 -14 -27 -29 3 -7 16 -12 30 -10 l24 2 -27 -36 c-15 -20 -19 -30
-10 -22 12 9 17 10 17 2 0 -7 5 -9 10 -6 16 10 12 -7 -7 -29 -18 -20 -18 -20
10 -2 l28 17 -16 -24 c-8 -13 -43 -45 -76 -71 -60 -47 -77 -77 -22 -39 39 27
62 38 38 18 -19 -17 -18 -17 20 -11 22 4 74 17 115 30 41 13 101 26 133 30 59
6 207 66 239 95 9 9 42 41 74 71 37 35 50 44 37 25 -24 -35 -149 -155 -161
-155 -5 0 -19 -9 -31 -19 l-23 -20 53 -15 c66 -20 121 -20 229 -1 47 8 98 15
113 15 33 0 66 33 67 67 0 17 4 20 21 16 34 -9 70 -103 77 -198 4 -67 7 -75
14 -50 5 17 6 55 3 85 -18 159 -92 289 -214 372 -24 17 -56 45 -71 62 -25 28
-28 37 -28 116 0 47 -6 99 -13 115 l-12 30 -7 -30 -6 -30 -8 35 c-5 19 -15 44
-22 55 -8 11 -14 27 -14 37 0 9 -5 20 -11 23 -7 5 -8 -5 -4 -32 l6 -38 -23 36
c-60 94 -79 118 -100 125 -14 4 -24 2 -26 -5 -4 -11 -46 15 -94 59 -25 22
-199 99 -250 109 -23 5 -77 19 -118 30 -142 39 -245 51 -450 50 -153 0 -214
-5 -285 -20z m-434 -353 c24 -9 75 -19 112 -22 78 -8 77 -19 -1 -26 -30 -3
-48 -2 -42 2 15 9 -37 17 -170 26 -93 7 -102 9 -77 19 43 18 129 18 178 1z
m1711 -403 c22 -20 23 -46 2 -78 -22 -33 -76 -35 -98 -3 -21 29 -20 40 5 72
24 30 63 34 91 9z m-157 -54 c-5 -16 -4 -19 5 -14 9 5 10 2 5 -14 -5 -17 -3
-20 12 -14 13 4 9 -3 -11 -25 -17 -18 -32 -32 -35 -32 -3 0 0 5 7 12 20 20 14
30 -10 17 -21 -11 -22 -11 -9 5 8 9 20 15 27 12 8 -3 11 0 7 9 -3 8 -9 13 -13
10 -9 -6 -7 11 5 38 10 24 18 21 10 -4z m174 -54 c-28 -40 -35 -44 -114 -50
-32 -2 -63 -9 -69 -15 -5 -5 -14 -10 -19 -10 -5 0 5 11 21 25 17 14 35 25 41
25 6 0 11 7 11 16 0 12 5 14 18 9 46 -20 69 -17 98 13 37 38 44 32 13 -13z"/>
<path d="M2915 3380 c3 -5 11 -10 16 -10 6 0 7 5 4 10 -3 6 -11 10 -16 10 -6
0 -7 -4 -4 -10z"/>
<path d="M2019 3027 c-43 -29 -47 -50 -15 -82 44 -44 135 -28 166 29 12 24 11
28 -10 51 -31 33 -93 34 -141 2z"/>
<path d="M2434 2889 c0 -57 -5 -75 -30 -116 -17 -27 -53 -64 -84 -85 -54 -39
-46 -52 13 -22 63 33 177 149 177 181 0 12 -17 41 -37 65 l-38 43 -1 -66z"/>
<path d="M738 2896 c-25 -13 -61 -37 -80 -55 -18 -17 -36 -31 -39 -31 -8 0
-90 -82 -107 -107 -19 -27 -25 -43 -20 -49 11 -10 143 62 174 94 43 46 41 45
108 103 38 34 50 49 35 44 -21 -7 -22 -6 -10 9 20 23 -3 21 -61 -8z"/>
<path d="M1811 2868 c-1 -60 11 -90 51 -131 37 -37 122 -87 147 -87 9 0 -2 9
-25 19 -86 39 -136 101 -160 196 l-12 50 -1 -47z"/>
<path d="M1355 2885 c-5 -2 -36 -9 -67 -15 -72 -14 -81 -39 -15 -41 23 -1 32
-4 19 -6 -12 -2 -20 -8 -17 -13 3 -4 14 -6 25 -3 39 10 19 -16 -25 -33 -50
-19 -49 -31 5 -36 58 -5 44 -30 -31 -54 -91 -29 -100 -36 -64 -47 17 -5 50
-12 75 -16 l45 -7 -35 -16 c-26 -12 -30 -17 -15 -18 l20 -1 -20 -9 c-19 -9
-19 -9 3 -16 22 -6 31 -24 11 -24 -5 0 -7 -5 -4 -10 9 -14 -38 -30 -88 -31
-23 0 -51 -5 -62 -10 -20 -9 -20 -9 0 -6 21 4 49 -16 38 -27 -4 -3 12 -6 35
-6 62 0 59 -16 -8 -34 -33 -9 -60 -20 -60 -23 0 -3 9 -3 20 0 15 4 20 0 20
-14 0 -14 7 -19 30 -19 l30 0 -32 -31 c-31 -29 -32 -30 -8 -24 24 7 24 7 5 -9
-12 -9 -15 -15 -7 -16 7 0 11 -4 8 -9 -4 -5 0 -12 6 -14 7 -3 3 -6 -9 -6 -25
-1 -30 -15 -11 -27 7 -4 8 -3 4 4 -4 7 -3 12 3 12 18 0 21 -17 6 -36 -17 -22
-19 -38 -5 -29 6 4 17 1 25 -5 8 -7 22 -10 30 -6 20 7 19 0 -5 -40 -20 -31
-20 -33 -3 -43 16 -9 15 -13 -17 -46 -25 -26 -29 -34 -15 -29 11 4 27 12 35
18 8 6 2 -4 -13 -22 -29 -36 -35 -62 -13 -62 17 0 108 50 118 64 4 6 8 7 8 2
0 -6 -12 -23 -27 -38 -24 -25 -25 -28 -7 -28 18 -1 18 -1 1 -11 -10 -6 -26
-29 -37 -52 -11 -23 -38 -60 -60 -82 -21 -22 -39 -44 -40 -49 0 -5 -18 -28
-40 -52 -22 -24 -40 -49 -40 -56 -1 -18 -70 -94 -70 -77 0 8 9 28 20 44 33 50
23 52 -22 5 -54 -57 -90 -86 -116 -94 -11 -4 -33 -17 -48 -29 -26 -20 -174
-97 -174 -90 0 2 19 24 43 50 33 36 36 43 17 33 -14 -7 -33 -20 -43 -28 -17
-15 -17 -14 -7 13 6 17 17 37 25 45 7 8 22 34 34 57 16 33 18 41 6 37 -8 -4
-15 -9 -15 -13 0 -4 -30 -36 -66 -72 -65 -63 -112 -126 -119 -158 -9 -40 -46
-125 -74 -171 -17 -28 -31 -54 -31 -58 0 -5 -11 -19 -24 -31 -21 -20 -23 -27
-14 -47 6 -13 15 -24 19 -24 4 0 11 -10 14 -21 7 -21 8 -21 34 7 14 15 34 39
43 52 16 25 17 25 11 -19 -3 -24 -11 -61 -18 -82 -12 -36 -11 -39 27 -92 21
-30 43 -55 48 -55 5 0 12 10 16 23 8 25 54 84 54 68 0 -5 -7 -40 -16 -77 l-15
-67 25 -25 25 -25 6 29 c19 93 75 225 113 268 9 12 25 32 35 46 l18 25 -6 -40
c-5 -30 -4 -36 5 -25 14 19 5 -27 -16 -83 -18 -48 -18 -61 1 -53 9 3 15 0 15
-9 0 -17 -49 -145 -62 -162 -5 -6 -13 -25 -18 -43 -8 -29 -6 -35 28 -67 20
-19 47 -41 60 -50 21 -14 24 -14 43 3 20 18 20 18 13 -10 -5 -21 -4 -27 5 -22
7 5 11 -1 11 -14 0 -13 10 -25 27 -32 16 -7 43 -25 62 -41 26 -23 110 -67 125
-67 2 0 8 19 15 42 7 24 18 54 24 68 11 25 11 25 15 -9 3 -26 6 -31 13 -20 6
9 9 -10 9 -57 l0 -70 67 -27 c37 -14 69 -24 72 -21 3 2 -3 26 -12 52 -9 26
-20 95 -23 154 -6 91 -9 105 -20 90 -12 -16 -13 -16 -19 1 -4 10 -5 59 -3 110
4 90 31 202 67 277 l16 34 9 -67 c7 -49 13 -66 22 -63 9 3 15 -8 18 -37 3 -23
12 -98 21 -167 18 -156 47 -289 55 -264 4 12 15 -13 29 -72 12 -49 26 -95 30
-102 4 -7 30 -19 57 -26 l50 -13 -4 161 c-3 102 -1 157 5 151 10 -10 68 -174
82 -230 l8 -30 7 34 8 34 19 -24 c10 -13 30 -48 46 -76 l27 -53 138 0 c76 0
138 3 138 6 0 3 -13 26 -30 50 -16 25 -33 57 -36 72 l-7 27 22 -27 c27 -34
148 -121 162 -116 5 2 -15 31 -45 65 -31 34 -56 63 -56 66 0 3 -14 20 -31 38
-16 18 -46 55 -65 83 -19 28 -42 62 -52 75 l-17 25 26 -18 c15 -9 41 -21 59
-26 31 -9 32 -8 16 9 -9 9 -16 21 -16 26 0 5 -11 25 -24 44 -27 39 -44 91 -30
91 5 -1 20 -7 34 -15 43 -24 42 -17 -7 57 l-48 71 0 91 c0 85 2 94 30 135 17
25 39 61 50 80 12 20 33 49 48 65 15 16 27 32 27 37 0 9 109 119 118 119 4 0
27 18 51 40 24 22 50 40 57 40 9 0 14 12 14 38 0 56 11 112 21 106 5 -3 9 1 9
8 0 7 14 40 30 73 17 34 30 76 30 98 l0 39 35 -42 c36 -43 72 -115 82 -163 3
-15 9 -30 13 -32 4 -3 34 4 66 15 91 30 377 26 298 -4 -8 -3 -12 -11 -9 -16 4
-6 1 -17 -5 -25 -11 -13 2 -15 97 -15 117 0 131 -5 151 -52 10 -24 9 -29 -8
-38 -45 -24 -149 -1 -230 51 -33 21 -72 39 -86 39 l-25 0 19 -27 c28 -40 35
-68 20 -81 -15 -12 -139 -21 -131 -9 4 6 -15 11 -44 10 -7 -1 -11 3 -8 7 6 10
-19 20 -51 20 -14 0 -24 -6 -24 -14 0 -15 -27 -25 -75 -27 -24 -1 -25 -3 -7
-6 12 -2 22 -9 22 -14 0 -5 7 -9 15 -9 23 0 65 -22 59 -31 -3 -5 -1 -9 5 -9 5
0 23 -12 40 -26 41 -34 40 -24 -1 17 -33 32 -33 32 -4 14 22 -13 28 -14 24 -3
-4 10 3 14 26 15 17 0 44 4 60 8 20 6 27 4 22 -3 -4 -7 2 -10 14 -9 11 1 20 6
20 12 0 6 3 6 8 -1 7 -11 50 -26 83 -29 24 -3 40 -15 34 -26 -12 -19 24 -8 38
11 14 20 15 20 33 -7 11 -15 22 -37 26 -48 6 -19 6 -18 7 3 1 12 4 22 7 22 13
0 44 -22 40 -28 -2 -4 9 -7 25 -8 16 -1 29 3 29 7 0 12 -39 31 -49 24 -5 -3
-12 4 -16 15 -3 11 -22 33 -42 49 l-36 30 34 -9 c19 -4 58 -16 88 -25 63 -20
170 -23 180 -6 10 16 54 -66 48 -89 -4 -16 -1 -17 18 -10 17 7 25 5 29 -6 3
-8 13 -14 21 -14 10 0 13 -5 9 -12 -5 -7 -3 -8 5 -3 9 5 6 14 -13 34 -14 15
-26 31 -26 35 0 5 -8 15 -18 22 -23 19 59 -17 138 -60 74 -40 105 -45 120 -17
22 41 10 65 -61 126 -168 144 -217 188 -329 296 -50 47 -90 90 -90 94 0 4 -18
25 -40 47 -22 22 -40 46 -40 53 0 7 -4 15 -8 17 -16 6 -70 97 -77 129 l-7 32
27 -21 c43 -34 49 -26 15 22 -35 52 -39 72 -11 56 28 -14 71 -30 71 -26 0 3
-20 28 -45 57 -42 50 -61 84 -32 61 6 -5 29 -17 51 -26 42 -18 42 -17 -9 44
-12 14 -29 37 -38 52 l-17 27 43 -19 c41 -19 85 -28 60 -12 -15 9 -83 95 -83
104 0 4 15 -1 33 -12 66 -40 69 -22 7 40 -33 33 -60 64 -60 70 0 14 -26 13
-50 -2 -17 -11 -22 -10 -29 1 -5 7 -14 10 -20 7 -7 -4 -11 1 -11 12 0 16 -9
21 -57 26 -145 16 -154 18 -149 32 3 8 -1 14 -10 14 -8 0 -13 4 -10 9 3 5 -1
12 -10 15 -25 10 -178 7 -194 -4 -8 -5 -10 -10 -5 -10 22 -1 -42 -29 -67 -30
-23 0 -28 -5 -28 -25 0 -24 -41 -55 -73 -55 -8 0 -20 -7 -27 -15 -9 -10 -9
-15 -1 -15 22 0 10 -16 -26 -35 -21 -11 -40 -22 -43 -26 -3 -3 -14 -11 -25
-17 -19 -11 -19 -11 3 -12 32 0 28 -28 -5 -36 -38 -10 -56 -30 -48 -54 4 -13
1 -22 -9 -26 -9 -3 -16 -13 -16 -21 0 -8 5 -11 12 -7 7 4 8 3 4 -5 -4 -6 -24
-20 -45 -31 -44 -22 -65 -56 -30 -47 l21 6 -22 -24 c-12 -13 -35 -29 -51 -35
-16 -7 -29 -15 -29 -19 0 -4 -24 -24 -52 -46 -29 -21 -69 -53 -88 -70 -19 -18
-43 -35 -53 -39 -15 -5 -17 -2 -11 17 3 12 13 34 20 49 8 16 19 39 24 53 9 24
8 25 -12 14 l-21 -11 21 30 c26 36 27 43 5 35 -14 -5 -13 -1 6 25 12 18 18 32
12 32 -22 0 -10 21 24 41 41 25 39 38 -6 31 -22 -3 -30 -1 -25 7 4 6 13 11 19
11 16 0 77 55 77 69 0 6 -17 11 -39 11 l-39 0 39 39 c26 26 36 41 27 44 -9 3
-7 11 10 29 12 13 22 34 22 46 0 12 5 22 11 22 8 0 8 4 0 14 -10 12 -6 18 18
32 21 13 27 21 20 30 -10 12 -2 44 11 44 5 0 6 9 3 21 -4 12 0 25 8 30 11 7
11 9 1 9 -16 0 -6 61 12 72 8 6 7 8 -1 8 -7 0 -13 5 -13 11 0 16 -31 38 -53
39 -19 0 -129 84 -136 103 -5 15 -54 56 -67 57 -5 0 -21 10 -34 22 -13 12 -46
28 -74 36 -48 13 -259 26 -281 17z m676 -1021 c-26 -54 -35 -88 -23 -80 14 9
23 -36 13 -70 -27 -95 -120 -224 -161 -224 -17 0 -19 5 -14 33 15 78 65 220
95 264 32 49 100 125 106 120 1 -2 -6 -21 -16 -43z m544 -134 l8 -75 -22 19
c-11 11 -21 24 -21 30 0 7 -9 29 -20 51 -22 42 -26 85 -9 85 5 0 18 17 27 38
l16 37 7 -55 c3 -30 10 -89 14 -130z m-329 86 c15 18 15 18 11 -4 -3 -12 -1
-35 4 -50 5 -15 11 -49 15 -76 4 -33 9 -45 14 -36 5 8 6 -5 3 -31 -8 -58 -46
-119 -75 -119 -12 0 -37 55 -49 110 -13 63 2 164 34 224 l22 41 3 -39 c3 -35
4 -37 18 -20z m502 -46 c25 -54 32 -83 32 -130 0 -33 -4 -60 -9 -60 -21 0 -62
45 -71 80 -10 38 -3 180 9 180 3 0 21 -32 39 -70z m192 25 c0 -6 18 -29 40
-50 22 -21 40 -43 40 -48 0 -5 18 -36 39 -68 22 -33 43 -69 47 -81 6 -19 4
-19 -22 6 -16 14 -36 29 -44 31 -16 6 -100 128 -100 146 0 5 -6 22 -14 37 -7
15 -17 38 -21 52 -8 25 -8 25 14 6 11 -11 21 -24 21 -31z m-1564 -94 c-15 -38
-14 -40 2 -34 9 4 28 18 42 31 31 29 60 46 60 34 0 -4 -18 -36 -40 -70 -22
-33 -40 -64 -40 -67 0 -4 -18 -32 -40 -64 -22 -31 -40 -62 -40 -67 0 -6 -10
-23 -23 -38 -13 -14 -36 -52 -52 -83 -17 -32 -45 -73 -63 -91 -31 -33 -102
-170 -102 -198 0 -7 -14 -35 -30 -61 -17 -26 -38 -71 -46 -99 -13 -46 -18 -52
-45 -56 l-30 -5 6 56 c4 31 11 71 15 90 5 19 7 38 4 43 -3 4 0 8 6 8 7 0 9 14
6 38 -3 20 -3 29 0 19 5 -17 8 -16 20 8 8 15 14 36 14 47 0 20 42 101 66 129
8 8 14 22 14 30 0 9 8 24 18 35 20 22 118 175 141 219 8 16 35 57 60 90 84
113 107 130 77 56z m1562 -84 c34 -29 71 -67 82 -84 l19 -32 -32 6 c-35 6 -67
29 -67 48 0 7 -9 20 -20 30 -24 21 -62 85 -52 85 4 0 36 -24 70 -53z m-1275
-171 c8 9 9 -415 1 -468 -4 -21 -9 -38 -13 -38 -11 0 -62 107 -76 161 -9 33
-15 102 -15 175 0 103 4 133 25 199 42 129 48 133 60 42 5 -44 13 -75 18 -71z
m445 -31 c8 -69 1 -170 -14 -217 -7 -22 -43 -68 -54 -68 -11 0 -26 50 -36 115
-3 28 -9 44 -11 38 -3 -7 -17 -13 -33 -13 -16 0 -31 -6 -34 -12 -3 -7 -3 1 0
17 8 42 52 171 66 194 10 17 13 17 27 3 14 -14 17 -9 35 49 l19 64 13 -46 c8
-26 18 -81 22 -124z m1143 55 c24 -22 48 -40 52 -40 11 0 107 -81 107 -90 0
-10 -46 8 -143 53 -42 20 -80 37 -85 37 -12 1 -58 40 -46 40 5 0 19 -7 30 -15
35 -27 39 -17 17 43 -10 25 26 11 68 -28z m-2365 -26 c8 3 14 4 14 2 0 -7 -84
-171 -90 -176 -3 -3 -28 -42 -55 -87 -27 -46 -52 -83 -57 -83 -4 0 -14 -15
-22 -32 -13 -33 -83 -104 -92 -95 -10 10 25 148 48 189 46 82 53 93 97 153 63
86 135 158 139 139 2 -9 10 -13 18 -10z m528 -70 c-12 -41 -12 -45 2 -40 12 4
15 2 10 -9 -3 -8 0 -15 7 -16 8 0 8 -2 1 -5 -6 -3 -9 -15 -7 -29 4 -17 -4 -33
-30 -59 -19 -19 -38 -49 -42 -66 -4 -17 -13 -43 -21 -58 -8 -15 -14 -35 -14
-45 0 -18 -43 -103 -62 -122 -6 -7 -7 17 -3 70 12 128 63 282 115 346 16 21
30 42 30 46 0 8 20 33 26 33 1 0 -4 -21 -12 -46z m477 -250 c-8 -62 -17 -93
-40 -130 -17 -27 -36 -60 -43 -74 -12 -25 -12 -24 -16 13 -2 22 1 53 7 69 6
17 11 43 11 57 0 14 18 73 40 131 22 58 41 116 42 130 1 14 4 -6 5 -45 2 -38
0 -106 -6 -151z m725 177 c-4 -5 0 -11 6 -14 7 -2 10 -7 7 -11 -3 -3 -14 3
-24 14 -17 18 -17 20 -1 20 9 0 15 -4 12 -9z m-847 -276 c14 -164 39 -279 72
-345 24 -48 56 -172 53 -206 -1 -6 6 -10 15 -7 13 3 20 -13 35 -78 11 -46 29
-102 41 -126 12 -24 19 -43 16 -43 -13 0 -102 97 -120 131 -45 83 -69 138 -87
192 -16 51 -21 57 -40 53 -20 -5 -23 -1 -29 44 -4 28 -14 58 -23 67 -14 14
-17 38 -17 137 0 166 18 323 35 296 4 -6 11 8 15 32 l8 43 7 -35 c5 -19 13
-89 19 -155z m-254 -240 c5 -150 4 -158 -10 -127 -21 46 -45 183 -45 264 0 50
4 71 17 84 17 17 18 16 25 -22 5 -21 10 -111 13 -199z m-389 163 c-24 -144
-24 -139 -8 -133 13 5 14 -5 8 -67 -6 -69 -48 -246 -66 -277 -5 -9 -11 20 -15
72 -5 64 -11 87 -21 87 -34 0 -8 180 37 253 10 18 19 38 19 45 0 16 32 61 44
62 5 0 5 -19 2 -42z"/>
<path d="M1890 2830 c0 -33 20 -103 28 -96 3 4 19 -6 34 -21 16 -16 50 -36 76
-45 38 -13 42 -17 22 -18 -24 -2 -23 -3 5 -10 40 -10 153 -10 185 0 23 7 22 8
-10 10 l-35 1 48 15 c26 8 47 20 47 27 0 7 12 18 28 24 26 12 71 93 51 93 -5
0 -9 -4 -9 -8 0 -19 -69 -77 -119 -100 -44 -20 -64 -24 -110 -19 -70 6 -153
47 -183 91 -12 17 -25 33 -28 36 -4 3 -12 14 -18 25 -11 19 -11 19 -12 -5z
m278 -187 c-10 -2 -26 -2 -35 0 -10 3 -2 5 17 5 19 0 27 -2 18 -5z"/>
<path d="M675 2721 c-70 -44 -228 -235 -240 -290 l-7 -33 28 17 c48 28 58 37
110 101 27 33 71 86 97 117 29 34 46 61 41 68 -4 7 1 18 11 26 30 21 -5 16
-40 -6z"/>
<path d="M2700 2510 c-12 -7 -8 -10 15 -10 42 0 105 -19 111 -33 3 -9 37 -11
119 -9 64 2 113 7 110 12 -3 5 -45 18 -94 29 -93 22 -235 28 -261 11z"/>
<path d="M505 2426 c-36 -35 -65 -68 -65 -72 0 -5 -15 -23 -33 -41 -36 -35
-64 -80 -55 -89 3 -3 26 1 50 9 30 10 49 25 63 48 10 19 27 40 37 47 10 7 18
19 18 27 0 7 19 33 41 56 23 24 36 45 30 47 -9 3 -9 7 0 18 9 11 8 14 -5 14
-9 0 -45 -29 -81 -64z"/>
<path d="M530 2258 c-23 -24 -49 -55 -58 -70 -9 -16 -20 -28 -24 -28 -4 0 -8
-4 -8 -10 0 -5 -20 -39 -45 -76 -54 -78 -58 -99 -17 -82 39 17 72 49 72 70 0
10 3 18 8 18 8 0 24 26 84 139 21 40 37 75 35 78 -3 2 -24 -15 -47 -39z"/>
<path d="M480 2019 c-19 -24 -41 -55 -48 -69 -6 -14 -28 -50 -47 -80 -37 -59
-47 -107 -19 -96 9 3 18 6 20 6 2 0 4 6 4 13 0 7 11 29 25 49 14 20 25 41 25
47 0 5 18 37 41 71 23 34 39 70 37 82 -3 17 -8 14 -38 -23z"/>
<path d="M482 1800 c-43 -58 -133 -241 -130 -263 3 -17 14 -3 44 58 23 44 44
92 48 107 3 15 12 33 19 40 15 15 49 80 44 85 -2 1 -13 -10 -25 -27z"/>
<path d="M478 1540 c-21 -27 -38 -53 -38 -60 0 -7 -8 -24 -19 -38 -10 -15 -26
-44 -34 -64 -14 -32 -14 -38 -2 -38 13 0 55 67 55 88 0 5 19 42 41 81 23 39
40 73 38 75 -2 2 -21 -18 -41 -44z"/>
<path d="M397 1251 c-26 -48 -47 -98 -47 -111 0 -13 18 15 44 66 74 151 77
183 3 45z"/>
<path d="M3477 1086 c-4 -10 0 -14 13 -13 14 1 16 4 8 14 -13 16 -15 16 -21
-1z"/>
<path d="M3510 1056 c0 -2 7 -7 16 -10 8 -3 12 -2 9 4 -6 10 -25 14 -25 6z"/>
</g>
</svg>
